<svg width="283" height="26" viewBox="0 0 283 26" fill="none" xmlns="http://www.w3.org/2000/svg">
  <g clip-path="url(#clip0_22_2023)">
    <path d="M33.218 18.352C32.0887 18.352 31.0253 18.1467 30.028 17.736C29.0307 17.3253 28.1507 16.7533 27.388 16.02C26.64 15.272 26.046 14.3993 25.606 13.402C25.1807 12.39 24.968 11.2973 24.968 10.124C24.968 8.95067 25.1807 7.86533 25.606 6.868C26.046 5.856 26.64 4.98333 27.388 4.25C28.1507 3.502 29.0307 2.92267 30.028 2.512C31.0253 2.10133 32.0887 1.896 33.218 1.896C34.4207 1.896 35.528 2.10867 36.54 2.534C37.5667 2.95933 38.4247 3.55333 39.114 4.316L37.442 5.966C37.1047 5.58467 36.716 5.262 36.276 4.998C35.8507 4.734 35.3813 4.536 34.868 4.404C34.3547 4.25733 33.8047 4.184 33.218 4.184C32.4407 4.184 31.7 4.32333 30.996 4.602C30.292 4.88067 29.6687 5.284 29.126 5.812C28.598 6.32533 28.18 6.94867 27.872 7.682C27.564 8.40067 27.41 9.21467 27.41 10.124C27.41 11.0333 27.564 11.8547 27.872 12.588C28.1947 13.3067 28.62 13.93 29.148 14.458C29.6907 14.9713 30.314 15.3673 31.018 15.646C31.722 15.9247 32.4627 16.064 33.24 16.064C33.9587 16.064 34.626 15.9613 35.242 15.756C35.8727 15.5507 36.4227 15.2573 36.892 14.876C37.3613 14.4947 37.7427 14.0327 38.036 13.49C38.3293 12.9327 38.5127 12.3093 38.586 11.62H33.196V9.486H40.852C40.8813 9.662 40.9107 9.86733 40.94 10.102C40.9693 10.322 40.984 10.5347 40.984 10.74V10.762C40.984 11.8913 40.786 12.9253 40.39 13.864C40.0087 14.8027 39.4733 15.6093 38.784 16.284C38.0947 16.944 37.2733 17.4573 36.32 17.824C35.3813 18.176 34.3473 18.352 33.218 18.352ZM48.2053 18.352C47.0467 18.352 46.0273 18.088 45.1473 17.56C44.2673 17.032 43.578 16.3207 43.0793 15.426C42.5807 14.5167 42.3313 13.5047 42.3313 12.39C42.3313 11.2753 42.5807 10.2707 43.0793 9.376C43.578 8.46667 44.2673 7.748 45.1473 7.22C46.0273 6.692 47.0467 6.428 48.2053 6.428C49.3493 6.428 50.3613 6.69933 51.2413 7.242C52.1213 7.77 52.8107 8.48133 53.3093 9.376C53.808 10.2707 54.0573 11.2753 54.0573 12.39C54.0573 13.5047 53.808 14.5167 53.3093 15.426C52.8107 16.3207 52.1213 17.032 51.2413 17.56C50.3613 18.088 49.3493 18.352 48.2053 18.352ZM48.2053 16.174C48.8213 16.174 49.3933 16.0273 49.9213 15.734C50.4493 15.426 50.8747 14.9933 51.1973 14.436C51.5347 13.864 51.7033 13.182 51.7033 12.39C51.7033 11.598 51.5347 10.9233 51.1973 10.366C50.8747 9.794 50.4493 9.36133 49.9213 9.068C49.3933 8.76 48.8213 8.606 48.2053 8.606C47.5893 8.606 47.01 8.76 46.4673 9.068C45.9393 9.36133 45.5067 9.794 45.1693 10.366C44.8467 10.9233 44.6853 11.598 44.6853 12.39C44.6853 13.182 44.8467 13.864 45.1693 14.436C45.5067 14.9933 45.9467 15.426 46.4893 15.734C47.032 16.0273 47.604 16.174 48.2053 16.174ZM60.9112 18.352C59.7525 18.352 58.7332 18.088 57.8532 17.56C56.9732 17.032 56.2839 16.3207 55.7852 15.426C55.2865 14.5167 55.0372 13.5047 55.0372 12.39C55.0372 11.2753 55.2865 10.2707 55.7852 9.376C56.2839 8.46667 56.9732 7.748 57.8532 7.22C58.7332 6.692 59.7525 6.428 60.9112 6.428C62.0552 6.428 63.0672 6.69933 63.9472 7.242C64.8272 7.77 65.5165 8.48133 66.0152 9.376C66.5139 10.2707 66.7632 11.2753 66.7632 12.39C66.7632 13.5047 66.5139 14.5167 66.0152 15.426C65.5165 16.3207 64.8272 17.032 63.9472 17.56C63.0672 18.088 62.0552 18.352 60.9112 18.352ZM60.9112 16.174C61.5272 16.174 62.0992 16.0273 62.6272 15.734C63.1552 15.426 63.5805 14.9933 63.9032 14.436C64.2405 13.864 64.4092 13.182 64.4092 12.39C64.4092 11.598 64.2405 10.9233 63.9032 10.366C63.5805 9.794 63.1552 9.36133 62.6272 9.068C62.0992 8.76 61.5272 8.606 60.9112 8.606C60.2952 8.606 59.7159 8.76 59.1732 9.068C58.6452 9.36133 58.2125 9.794 57.8752 10.366C57.5525 10.9233 57.3912 11.598 57.3912 12.39C57.3912 13.182 57.5525 13.864 57.8752 14.436C58.2125 14.9933 58.6525 15.426 59.1952 15.734C59.7379 16.0273 60.3099 16.174 60.9112 16.174ZM73.397 23.104C72.4144 23.104 71.5637 22.9427 70.845 22.62C70.141 22.312 69.569 21.9087 69.129 21.41C68.689 20.926 68.3737 20.4273 68.183 19.914L70.383 18.99C70.6177 19.5767 70.9917 20.0533 71.505 20.42C72.033 20.8013 72.6637 20.992 73.397 20.992C74.4384 20.992 75.2524 20.684 75.839 20.068C76.4257 19.452 76.719 18.5793 76.719 17.45V16.372H76.587C76.235 16.8853 75.751 17.3033 75.135 17.626C74.519 17.9487 73.8077 18.11 73.001 18.11C72.0477 18.11 71.1677 17.868 70.361 17.384C69.569 16.9 68.931 16.2253 68.447 15.36C67.9777 14.48 67.743 13.4533 67.743 12.28C67.743 11.092 67.9777 10.0653 68.447 9.2C68.931 8.32 69.569 7.638 70.361 7.154C71.1677 6.67 72.0477 6.428 73.001 6.428C73.8077 6.428 74.519 6.58933 75.135 6.912C75.751 7.22 76.235 7.64533 76.587 8.188H76.719V6.78H78.985V17.406C78.985 18.6233 78.743 19.6573 78.259 20.508C77.7897 21.3587 77.137 22.004 76.301 22.444C75.465 22.884 74.497 23.104 73.397 23.104ZM73.419 15.954C74.0057 15.954 74.5484 15.8147 75.047 15.536C75.5604 15.2427 75.9637 14.8247 76.257 14.282C76.565 13.7247 76.719 13.0573 76.719 12.28C76.719 11.4587 76.565 10.7767 76.257 10.234C75.9637 9.69133 75.5604 9.28067 75.047 9.002C74.5484 8.72333 74.0057 8.584 73.419 8.584C72.8324 8.584 72.2824 8.72333 71.769 9.002C71.2704 9.28067 70.867 9.69867 70.559 10.256C70.251 10.7987 70.097 11.4733 70.097 12.28C70.097 13.072 70.251 13.7467 70.559 14.304C70.867 14.8467 71.2704 15.2573 71.769 15.536C72.2824 15.8147 72.8324 15.954 73.419 15.954ZM81.1718 18V2.248H83.5478V18H81.1718ZM90.8826 18.352C89.7826 18.352 88.7999 18.0953 87.9346 17.582C87.0692 17.0687 86.3872 16.3647 85.8886 15.47C85.4046 14.5753 85.1626 13.556 85.1626 12.412C85.1626 11.3413 85.3972 10.3513 85.8666 9.442C86.3359 8.53267 86.9886 7.80667 87.8246 7.264C88.6752 6.70667 89.6506 6.428 90.7506 6.428C91.9092 6.428 92.8919 6.67733 93.6986 7.176C94.5199 7.67467 95.1432 8.35667 95.5686 9.222C95.9939 10.0873 96.2066 11.0627 96.2066 12.148C96.2066 12.3093 96.1992 12.456 96.1846 12.588C96.1846 12.72 96.1772 12.8227 96.1626 12.896H86.5046V11.114H93.8526C93.8379 10.8353 93.7646 10.542 93.6326 10.234C93.5006 9.91133 93.3099 9.618 93.0606 9.354C92.8112 9.09 92.4959 8.87733 92.1146 8.716C91.7332 8.54 91.2859 8.452 90.7726 8.452C90.1272 8.452 89.5552 8.62067 89.0566 8.958C88.5579 9.28067 88.1692 9.73533 87.8906 10.322C87.6119 10.9087 87.4726 11.5907 87.4726 12.368C87.4726 13.2187 87.6339 13.93 87.9566 14.502C88.2792 15.074 88.7046 15.5067 89.2326 15.8C89.7606 16.0933 90.3326 16.24 90.9486 16.24C91.6966 16.24 92.3199 16.0713 92.8186 15.734C93.3319 15.382 93.7352 14.9493 94.0286 14.436L95.9866 15.382C95.5026 16.262 94.8426 16.9807 94.0066 17.538C93.1706 18.0807 92.1292 18.352 90.8826 18.352ZM102.777 18V2.248H112.325V4.536H105.197V15.712H112.325V18H102.777ZM104.097 11.268V8.98H111.621V11.268H104.097ZM117.512 18.352C116.691 18.352 115.972 18.1907 115.356 17.868C114.74 17.5453 114.249 17.1053 113.882 16.548C113.53 15.976 113.354 15.3233 113.354 14.59C113.354 13.7833 113.56 13.1013 113.97 12.544C114.396 11.9867 114.953 11.5613 115.642 11.268C116.346 10.9747 117.124 10.828 117.974 10.828C118.458 10.828 118.898 10.8647 119.294 10.938C119.69 10.9967 120.042 11.07 120.35 11.158C120.658 11.246 120.9 11.3413 121.076 11.444V10.85C121.076 10.1167 120.812 9.53 120.284 9.09C119.756 8.65 119.074 8.43 118.238 8.43C117.666 8.43 117.124 8.562 116.61 8.826C116.097 9.07533 115.679 9.42 115.356 9.86L113.75 8.606C114.073 8.15133 114.462 7.76267 114.916 7.44C115.386 7.11733 115.906 6.868 116.478 6.692C117.05 6.516 117.659 6.428 118.304 6.428C119.918 6.428 121.164 6.83133 122.044 7.638C122.924 8.43 123.364 9.54467 123.364 10.982V18H121.076V16.614H120.944C120.739 16.9073 120.468 17.186 120.13 17.45C119.808 17.714 119.426 17.9267 118.986 18.088C118.546 18.264 118.055 18.352 117.512 18.352ZM117.93 16.416C118.546 16.416 119.089 16.2693 119.558 15.976C120.028 15.6827 120.394 15.3013 120.658 14.832C120.937 14.348 121.076 13.8273 121.076 13.27C120.739 13.0793 120.343 12.9253 119.888 12.808C119.434 12.676 118.942 12.61 118.414 12.61C117.461 12.61 116.779 12.8007 116.368 13.182C115.958 13.5633 115.752 14.04 115.752 14.612C115.752 15.14 115.943 15.5727 116.324 15.91C116.72 16.2473 117.256 16.416 117.93 16.416ZM125.387 18V6.78H127.631V8.43H127.763C127.939 8.04867 128.188 7.71133 128.511 7.418C128.848 7.12467 129.229 6.89 129.655 6.714C130.095 6.538 130.549 6.45 131.019 6.45C131.327 6.45 131.583 6.472 131.789 6.516C132.009 6.54533 132.207 6.59667 132.383 6.67V9.134C132.104 9.01667 131.818 8.92133 131.525 8.848C131.246 8.77467 130.953 8.738 130.645 8.738C130.087 8.738 129.589 8.892 129.149 9.2C128.723 9.49333 128.386 9.88933 128.137 10.388C127.887 10.8867 127.763 11.444 127.763 12.06V18H125.387ZM132.917 8.848V6.78H135.007V8.848H132.917ZM138.307 18.176C137.266 18.176 136.437 17.868 135.821 17.252C135.205 16.636 134.897 15.8 134.897 14.744V3.612H137.273V14.238C137.273 14.8247 137.391 15.2573 137.625 15.536C137.86 15.8147 138.234 15.954 138.747 15.954C138.982 15.954 139.202 15.9247 139.407 15.866C139.613 15.7927 139.84 15.6827 140.089 15.536V17.846C139.811 17.9487 139.525 18.0293 139.231 18.088C138.938 18.1467 138.63 18.176 138.307 18.176ZM137.141 8.848V6.78H140.001V8.848H137.141ZM141.732 18V2.248H144.108V6.56L143.976 8.32H144.108C144.416 7.77733 144.885 7.33 145.516 6.978C146.161 6.61133 146.873 6.428 147.65 6.428C148.589 6.428 149.366 6.61867 149.982 7C150.613 7.38133 151.082 7.90933 151.39 8.584C151.698 9.244 151.852 10.0213 151.852 10.916V18H149.498V11.224C149.498 10.6227 149.381 10.1313 149.146 9.75C148.926 9.36867 148.633 9.08267 148.266 8.892C147.899 8.70133 147.489 8.606 147.034 8.606C146.462 8.606 145.956 8.76733 145.516 9.09C145.076 9.41267 144.731 9.838 144.482 10.366C144.233 10.8793 144.108 11.4293 144.108 12.016V18H141.732ZM158.946 18V2.248H168.494V4.536H161.366V15.712H168.494V18H158.946ZM160.266 11.268V8.98H167.79V11.268H160.266ZM170.439 18V6.78H172.683V8.32H172.815C173.138 7.77733 173.615 7.33 174.245 6.978C174.891 6.61133 175.595 6.428 176.357 6.428C177.736 6.428 178.77 6.83867 179.459 7.66C180.149 8.46667 180.493 9.552 180.493 10.916V18H178.139V11.224C178.139 10.3147 177.912 9.65467 177.457 9.244C177.003 8.81867 176.409 8.606 175.675 8.606C175.103 8.606 174.605 8.76733 174.179 9.09C173.754 9.398 173.417 9.80867 173.167 10.322C172.933 10.8353 172.815 11.3853 172.815 11.972V18H170.439ZM187.668 23.104C186.685 23.104 185.835 22.9427 185.116 22.62C184.412 22.312 183.84 21.9087 183.4 21.41C182.96 20.926 182.645 20.4273 182.454 19.914L184.654 18.99C184.889 19.5767 185.263 20.0533 185.776 20.42C186.304 20.8013 186.935 20.992 187.668 20.992C188.709 20.992 189.523 20.684 190.11 20.068C190.697 19.452 190.99 18.5793 190.99 17.45V16.372H190.858C190.506 16.8853 190.022 17.3033 189.406 17.626C188.79 17.9487 188.079 18.11 187.272 18.11C186.319 18.11 185.439 17.868 184.632 17.384C183.84 16.9 183.202 16.2253 182.718 15.36C182.249 14.48 182.014 13.4533 182.014 12.28C182.014 11.092 182.249 10.0653 182.718 9.2C183.202 8.32 183.84 7.638 184.632 7.154C185.439 6.67 186.319 6.428 187.272 6.428C188.079 6.428 188.79 6.58933 189.406 6.912C190.022 7.22 190.506 7.64533 190.858 8.188H190.99V6.78H193.256V17.406C193.256 18.6233 193.014 19.6573 192.53 20.508C192.061 21.3587 191.408 22.004 190.572 22.444C189.736 22.884 188.768 23.104 187.668 23.104ZM187.69 15.954C188.277 15.954 188.819 15.8147 189.318 15.536C189.831 15.2427 190.235 14.8247 190.528 14.282C190.836 13.7247 190.99 13.0573 190.99 12.28C190.99 11.4587 190.836 10.7767 190.528 10.234C190.235 9.69133 189.831 9.28067 189.318 9.002C188.819 8.72333 188.277 8.584 187.69 8.584C187.103 8.584 186.553 8.72333 186.04 9.002C185.541 9.28067 185.138 9.69867 184.83 10.256C184.522 10.7987 184.368 11.4733 184.368 12.28C184.368 13.072 184.522 13.7467 184.83 14.304C185.138 14.8467 185.541 15.2573 186.04 15.536C186.553 15.8147 187.103 15.954 187.69 15.954ZM195.443 18V6.78H197.819V18H195.443ZM196.631 5.13C196.191 5.13 195.81 4.976 195.487 4.668C195.179 4.34533 195.025 3.964 195.025 3.524C195.025 3.06933 195.179 2.69533 195.487 2.402C195.81 2.094 196.191 1.94 196.631 1.94C197.086 1.94 197.467 2.094 197.775 2.402C198.083 2.69533 198.237 3.06933 198.237 3.524C198.237 3.964 198.083 4.34533 197.775 4.668C197.467 4.976 197.086 5.13 196.631 5.13ZM200.028 18V6.78H202.272V8.32H202.404C202.726 7.77733 203.203 7.33 203.834 6.978C204.479 6.61133 205.183 6.428 205.946 6.428C207.324 6.428 208.358 6.83867 209.048 7.66C209.737 8.46667 210.082 9.552 210.082 10.916V18H207.728V11.224C207.728 10.3147 207.5 9.65467 207.046 9.244C206.591 8.81867 205.997 8.606 205.264 8.606C204.692 8.606 204.193 8.76733 203.768 9.09C203.342 9.398 203.005 9.80867 202.756 10.322C202.521 10.8353 202.404 11.3853 202.404 11.972V18H200.028ZM217.322 18.352C216.222 18.352 215.24 18.0953 214.374 17.582C213.509 17.0687 212.827 16.3647 212.328 15.47C211.844 14.5753 211.602 13.556 211.602 12.412C211.602 11.3413 211.837 10.3513 212.306 9.442C212.776 8.53267 213.428 7.80667 214.264 7.264C215.115 6.70667 216.09 6.428 217.19 6.428C218.349 6.428 219.332 6.67733 220.138 7.176C220.96 7.67467 221.583 8.35667 222.008 9.222C222.434 10.0873 222.646 11.0627 222.646 12.148C222.646 12.3093 222.639 12.456 222.624 12.588C222.624 12.72 222.617 12.8227 222.602 12.896H212.944V11.114H220.292C220.278 10.8353 220.204 10.542 220.072 10.234C219.94 9.91133 219.75 9.618 219.5 9.354C219.251 9.09 218.936 8.87733 218.554 8.716C218.173 8.54 217.726 8.452 217.212 8.452C216.567 8.452 215.995 8.62067 215.496 8.958C214.998 9.28067 214.609 9.73533 214.33 10.322C214.052 10.9087 213.912 11.5907 213.912 12.368C213.912 13.2187 214.074 13.93 214.396 14.502C214.719 15.074 215.144 15.5067 215.672 15.8C216.2 16.0933 216.772 16.24 217.388 16.24C218.136 16.24 218.76 16.0713 219.258 15.734C219.772 15.382 220.175 14.9493 220.468 14.436L222.426 15.382C221.942 16.262 221.282 16.9807 220.446 17.538C219.61 18.0807 218.569 18.352 217.322 18.352ZM227.787 18L233.727 2.248H236.477L242.439 18H239.777L235.773 6.89L235.179 5.086H235.047L234.453 6.89L230.449 18H227.787ZM234.915 13.952V11.708H238.567L239.359 13.952H234.915ZM230.625 13.952L231.417 11.708H234.915V13.952H230.625ZM243.589 22.752V6.78H245.833V8.298H245.965C246.171 7.97533 246.442 7.67467 246.779 7.396C247.131 7.10267 247.542 6.868 248.011 6.692C248.481 6.516 249.001 6.428 249.573 6.428C250.6 6.428 251.517 6.68467 252.323 7.198C253.13 7.71133 253.768 8.41533 254.237 9.31C254.721 10.2047 254.963 11.2313 254.963 12.39C254.963 13.5487 254.721 14.5753 254.237 15.47C253.768 16.3647 253.13 17.0687 252.323 17.582C251.517 18.0953 250.6 18.352 249.573 18.352C248.723 18.352 247.982 18.1613 247.351 17.78C246.721 17.3987 246.259 16.9733 245.965 16.504H245.833L245.965 18.066V22.752H243.589ZM249.221 16.174C249.808 16.174 250.358 16.02 250.871 15.712C251.399 15.404 251.817 14.964 252.125 14.392C252.448 13.82 252.609 13.1527 252.609 12.39C252.609 11.6127 252.448 10.9453 252.125 10.388C251.817 9.816 251.399 9.376 250.871 9.068C250.358 8.76 249.808 8.606 249.221 8.606C248.635 8.606 248.085 8.76 247.571 9.068C247.058 9.376 246.64 9.816 246.317 10.388C245.995 10.9453 245.833 11.6127 245.833 12.39C245.833 13.1673 245.995 13.842 246.317 14.414C246.64 14.9713 247.058 15.404 247.571 15.712C248.085 16.02 248.635 16.174 249.221 16.174ZM256.553 22.752V6.78H258.797V8.298H258.929C259.134 7.97533 259.406 7.67467 259.743 7.396C260.095 7.10267 260.506 6.868 260.975 6.692C261.444 6.516 261.965 6.428 262.537 6.428C263.564 6.428 264.48 6.68467 265.287 7.198C266.094 7.71133 266.732 8.41533 267.201 9.31C267.685 10.2047 267.927 11.2313 267.927 12.39C267.927 13.5487 267.685 14.5753 267.201 15.47C266.732 16.3647 266.094 17.0687 265.287 17.582C264.48 18.0953 263.564 18.352 262.537 18.352C261.686 18.352 260.946 18.1613 260.315 17.78C259.684 17.3987 259.222 16.9733 258.929 16.504H258.797L258.929 18.066V22.752H256.553ZM262.185 16.174C262.772 16.174 263.322 16.02 263.835 15.712C264.363 15.404 264.781 14.964 265.089 14.392C265.412 13.82 265.573 13.1527 265.573 12.39C265.573 11.6127 265.412 10.9453 265.089 10.388C264.781 9.816 264.363 9.376 263.835 9.068C263.322 8.76 262.772 8.606 262.185 8.606C261.598 8.606 261.048 8.76 260.535 9.068C260.022 9.376 259.604 9.816 259.281 10.388C258.958 10.9453 258.797 11.6127 258.797 12.39C258.797 13.1673 258.958 13.842 259.281 14.414C259.604 14.9713 260.022 15.404 260.535 15.712C261.048 16.02 261.598 16.174 262.185 16.174ZM273.609 18.352C272.714 18.352 271.937 18.22 271.277 17.956C270.617 17.6773 270.074 17.3107 269.649 16.856C269.223 16.3867 268.908 15.8807 268.703 15.338L270.837 14.414C271.101 15.0153 271.475 15.4773 271.959 15.8C272.457 16.108 273.029 16.262 273.675 16.262C274.261 16.262 274.767 16.1593 275.193 15.954C275.618 15.734 275.831 15.382 275.831 14.898C275.831 14.59 275.728 14.3407 275.523 14.15C275.332 13.9447 275.068 13.776 274.731 13.644C274.408 13.512 274.034 13.3947 273.609 13.292L272.267 12.984C271.739 12.852 271.233 12.6467 270.749 12.368C270.279 12.0747 269.898 11.708 269.605 11.268C269.311 10.828 269.165 10.3073 269.165 9.706C269.165 9.03133 269.355 8.452 269.737 7.968C270.133 7.46933 270.661 7.088 271.321 6.824C271.981 6.56 272.692 6.428 273.455 6.428C274.159 6.428 274.797 6.52333 275.369 6.714C275.955 6.89 276.461 7.16133 276.887 7.528C277.327 7.88 277.671 8.32 277.921 8.848L275.875 9.772C275.625 9.27333 275.288 8.92867 274.863 8.738C274.437 8.53267 273.975 8.43 273.477 8.43C272.919 8.43 272.45 8.54733 272.069 8.782C271.702 9.002 271.519 9.29533 271.519 9.662C271.519 10.0433 271.68 10.344 272.003 10.564C272.34 10.784 272.751 10.96 273.235 11.092L274.863 11.488C275.977 11.7667 276.813 12.192 277.371 12.764C277.928 13.3213 278.207 14.0033 278.207 14.81C278.207 15.5287 278.001 16.1593 277.591 16.702C277.18 17.23 276.623 17.6407 275.919 17.934C275.229 18.2127 274.459 18.352 273.609 18.352Z" fill="#202124"/>
    <path d="M8.1632 17.2347C8.05458 17.233 7.94456 17.2222 7.84294 17.1903C7.68574 17.1408 7.58112 17.2002 7.4871 17.315C7.39646 17.4258 7.34042 17.5572 7.26429 17.6764C7.15412 17.8488 7.0418 18.0199 6.9299 18.1912C6.8149 18.3673 6.70521 18.5469 6.5827 18.718C6.52346 18.8007 6.44691 18.8585 6.35059 18.891C6.22207 18.9344 6.09116 18.9703 5.95791 18.994C5.80681 19.0209 5.67797 18.9532 5.55278 18.8814C5.22168 18.6914 4.89091 18.5007 4.56061 18.3093C4.16426 18.0798 3.76557 17.8543 3.37425 17.6161C3.24136 17.5353 3.14782 17.4278 3.11158 17.273C3.0799 17.1379 3.03169 17.0068 3.03516 16.8645C3.037 16.7902 3.05371 16.721 3.08591 16.6562C3.27572 16.2741 3.47239 15.8956 3.68394 15.5249C3.75336 15.4032 3.80777 15.2738 3.86052 15.1446C3.90108 15.0454 3.88324 14.9531 3.80739 14.8653C3.57106 14.5919 3.36533 14.2959 3.17912 13.9863C2.9542 13.6123 2.76785 13.2199 2.62084 12.8096C2.5725 12.6747 2.47731 12.6305 2.34621 12.612C2.10405 12.5779 1.86101 12.5853 1.6181 12.5774C1.43143 12.5713 1.24457 12.5652 1.05804 12.5559C0.915207 12.5488 0.771012 12.5489 0.629775 12.5232C0.525197 12.5041 0.434466 12.451 0.358379 12.3791C0.267601 12.2933 0.17396 12.2095 0.0976385 12.1097C0.0406089 12.0351 0.0178899 11.9474 0.0125863 11.8561C-0.00107271 11.6193 0.000758491 11.3821 0.000758491 11.145C0.000664665 10.5244 0.00183769 9.90371 7.03696e-06 9.2831C-0.000509355 9.11311 0.0271836 8.95834 0.153025 8.82914C0.241456 8.73839 0.325054 8.643 0.426064 8.56592C0.538058 8.48046 0.672771 8.47119 0.806451 8.46421C0.98552 8.45489 1.16496 8.45152 1.34389 8.44014C1.56736 8.42595 1.79065 8.40736 2.01468 8.40858C2.12302 8.40914 2.23116 8.41682 2.33879 8.39739C2.39089 8.38797 2.44013 8.37051 2.48754 8.34831C2.54551 8.3212 2.58292 8.27924 2.6054 8.21522C2.8031 7.65221 3.0714 7.12478 3.411 6.63322C3.54397 6.44085 3.68404 6.25429 3.83691 6.07746C3.90235 6.00184 3.88883 5.91947 3.85527 5.84061C3.78228 5.66926 3.70107 5.5018 3.60889 5.33936C3.437 5.03652 3.28023 4.72558 3.1204 4.41623C3.04052 4.2616 3.01479 4.10796 3.05713 3.93919C3.08328 3.8349 3.10534 3.7294 3.1443 3.62928C3.20381 3.47624 3.34097 3.40287 3.47197 3.32401C3.9651 3.02716 4.46757 2.74629 4.96479 2.45642C5.18052 2.33064 5.39967 2.21071 5.6147 2.08376C5.7618 1.99694 5.9143 1.9842 6.07544 2.02902C6.13449 2.04545 6.19311 2.06409 6.25301 2.07678C6.43409 2.11518 6.55777 2.22466 6.65456 2.3777C6.86832 2.71566 7.08935 3.04898 7.30282 3.38708C7.36539 3.48617 7.4143 3.59378 7.4887 3.68585C7.52315 3.72856 7.5661 3.7612 7.60816 3.79552C7.64782 3.82783 7.69025 3.81505 7.73095 3.80732C7.98239 3.75928 8.23544 3.72556 8.49092 3.70603C8.73387 3.68749 8.97682 3.67775 9.2201 3.68697C9.57885 3.70055 9.93577 3.73385 10.2876 3.80802C10.3738 3.82624 10.4245 3.78522 10.472 3.72542C10.6607 3.488 10.8023 3.22024 10.9644 2.96568C11.1063 2.74287 11.2418 2.5157 11.3952 2.30057C11.459 2.21108 11.5438 2.13944 11.6544 2.10624C11.7734 2.07046 11.8912 2.0292 12.0137 2.00738C12.115 1.98935 12.2148 2.00448 12.3065 2.05135C12.5321 2.16679 12.7512 2.29406 12.9709 2.42036C13.2743 2.5948 13.5776 2.76979 13.881 2.94437C14.1246 3.08457 14.3682 3.22492 14.6123 3.36456C14.7493 3.443 14.8404 3.55609 14.8805 3.7094C14.9137 3.83635 14.9604 3.95979 14.9661 4.09349C14.9701 4.18794 14.945 4.27326 14.9033 4.35507C14.7251 4.70544 14.5471 5.05586 14.3666 5.40506C14.2999 5.53407 14.2089 5.64992 14.1584 5.78797C14.1395 5.83939 14.131 5.89249 14.1238 5.94602C14.1193 5.97898 14.1285 6.00703 14.1513 6.03345C14.3689 6.2858 14.5689 6.55151 14.7469 6.83294C15.0263 7.27477 15.2571 7.74067 15.4255 8.23587C15.4477 8.30115 15.4854 8.33787 15.5463 8.36329C15.6546 8.40858 15.7689 8.41808 15.8823 8.41237C16.0677 8.403 16.2516 8.41499 16.4359 8.42876C16.5122 8.43447 16.5887 8.43335 16.6653 8.4392C16.8459 8.45302 17.0272 8.45798 17.2083 8.46337C17.4001 8.46903 17.5675 8.52598 17.6995 8.67264C17.7691 8.75005 17.8463 8.82039 17.9093 8.90421C17.9749 8.99131 17.9992 9.0918 17.9994 9.19539C18.0009 10.0179 17.9992 10.8405 17.9982 11.663C17.9981 11.681 18.0042 11.7007 17.9893 11.7165C17.9339 11.6726 17.8843 11.622 17.8325 11.5743C17.6268 11.3848 17.4174 11.1992 17.2105 11.011C17.0503 10.8653 16.8957 10.7133 16.7387 10.564C16.6127 10.4443 16.4948 10.3165 16.3651 10.2003C16.2245 10.0744 16.0993 9.93223 15.9583 9.80626C15.8301 9.69177 15.7164 9.5621 15.5878 9.44737C15.4525 9.32674 15.3326 9.19 15.197 9.06905C15.0673 8.95343 14.9523 8.8224 14.8224 8.70627C14.6845 8.58301 14.5625 8.44304 14.4237 8.32012C14.3048 8.2149 14.1998 8.09497 14.081 7.98895C13.9458 7.86827 13.8236 7.73388 13.6906 7.61034C13.4974 7.43099 13.3124 7.24302 13.1237 7.0588C13.1093 7.0447 13.0971 7.0263 13.0728 7.02845C13.0702 7.02546 13.0675 7.02251 13.0648 7.01951C13.0605 7.01492 13.0562 7.01033 13.052 7.00574C13.0356 6.99052 13.0174 6.97676 13.0032 6.9598C12.8793 6.81229 12.7431 6.67729 12.6017 6.54636C12.3695 6.33132 12.1177 6.1426 11.8519 5.9721C11.7805 5.92626 11.7117 5.87306 11.6276 5.84922C11.6121 5.83007 11.5919 5.81752 11.5704 5.80577C11.4162 5.72143 11.2583 5.64463 11.0968 5.57528C10.5837 5.35509 10.0485 5.21971 9.49295 5.16806C9.2493 5.14539 9.0048 5.1371 8.75908 5.15134C8.51073 5.16572 8.26407 5.1903 8.02018 5.23619C7.45631 5.34231 6.9223 5.53355 6.42076 5.81251C6.36279 5.84473 6.29929 5.86917 6.25169 5.91825L6.2524 5.91773C6.24005 5.91647 6.23104 5.92003 6.22949 5.93398C6.19156 5.95379 6.15181 5.97088 6.11599 5.99397C5.81409 6.18854 5.53485 6.41177 5.27688 6.66146C5.14142 6.79263 5.01417 6.93171 4.89504 7.07758C4.8343 7.15189 4.76568 7.22115 4.72292 7.3091L4.72334 7.30844C4.71461 7.31064 4.71217 7.31738 4.71104 7.32516C4.67734 7.35288 4.65505 7.38978 4.63054 7.42486C4.22289 8.00796 3.94412 8.64759 3.79134 9.3414C3.73858 9.58102 3.69704 9.82289 3.68845 10.0691C3.67282 10.1389 3.68192 10.2103 3.67474 10.2805C3.65048 10.5178 3.67296 10.7542 3.69192 10.9898C3.71028 11.2176 3.74773 11.4436 3.80101 11.6663C3.83518 11.8091 3.86606 11.9529 3.92103 12.0898C3.94365 12.1973 3.98538 12.2986 4.02467 12.4005C4.10202 12.6012 4.18665 12.7988 4.29475 12.9854C4.34117 13.0955 4.4067 13.195 4.46884 13.2964C4.64031 13.576 4.83871 13.8352 5.05876 14.0787C5.13245 14.1603 5.21384 14.2343 5.28491 14.3181C5.28941 14.3221 5.29387 14.326 5.29838 14.3299C5.30143 14.3329 5.30453 14.3359 5.30763 14.3388C5.31147 14.3434 5.31537 14.3479 5.31927 14.3524L5.31875 14.3519C5.32269 14.3558 5.32659 14.3597 5.33048 14.3636L5.33002 14.3631C5.33433 14.3671 5.33861 14.3709 5.34288 14.3749C5.35677 14.3823 5.36742 14.393 5.37494 14.4068C5.37371 14.4285 5.38986 14.4398 5.40272 14.4531C5.59151 14.6473 5.78771 14.8341 5.97349 15.0315C6.21682 15.29 6.47728 15.5317 6.72192 15.7893C6.9882 16.0697 7.27255 16.3327 7.53709 16.6151C7.63674 16.7215 7.74207 16.8226 7.84646 16.9245C7.93179 17.0077 8.00924 17.099 8.10443 17.1723C8.12663 17.1893 8.16155 17.1974 8.1632 17.2347Z" fill="#9AA0A6"/>
    <path d="M8.16333 17.2348C8.16168 17.1975 8.12676 17.1893 8.10456 17.1723C8.00937 17.099 7.93192 17.0077 7.84659 16.9245C7.7422 16.8227 7.63687 16.7215 7.53722 16.6151C7.27268 16.3327 6.98833 16.0697 6.72205 15.7893C6.47741 15.5318 6.21695 15.29 5.97362 15.0315C5.78784 14.8342 5.59164 14.6474 5.40285 14.4531C5.38999 14.4399 5.37384 14.4285 5.37507 14.4068C5.39515 14.4099 5.40698 14.4251 5.42055 14.4378C5.524 14.535 5.6343 14.6242 5.7462 14.7113C5.98549 14.8975 6.24051 15.0599 6.50806 15.2023C6.66957 15.2882 6.83432 15.3682 7.00724 15.4296C7.02067 15.4362 7.03367 15.4438 7.04756 15.4491C7.35825 15.5681 7.67592 15.6612 8.00322 15.7243C8.30452 15.7825 8.60835 15.8099 8.91401 15.8206C9.12335 15.828 9.33185 15.8094 9.5404 15.7903C9.78222 15.7681 10.0202 15.7258 10.2556 15.669C10.6881 15.5648 11.1003 15.4075 11.4938 15.1995C11.9937 14.9352 12.4385 14.5982 12.8323 14.1942C12.8792 14.146 12.9361 14.1034 12.9638 14.038L12.9635 14.0385C12.9686 14.0347 12.9738 14.0309 12.9789 14.027C13.0438 13.9728 13.0936 13.9051 13.1466 13.8402C13.4258 13.4976 13.6545 13.1235 13.8414 12.7237C13.8475 12.7106 13.8491 12.6954 13.8528 12.6811C13.8675 12.6533 13.8846 12.6263 13.8965 12.5973C13.9358 12.5007 13.9753 12.4042 14.0111 12.3062C14.0834 12.1088 14.1465 11.9085 14.1897 11.7024C14.2265 11.5697 14.2484 11.4342 14.27 11.2983C14.3196 10.9865 14.3393 10.673 14.335 10.3577C14.3347 10.3395 14.34 10.32 14.3267 10.3036C14.3255 10.1452 14.3107 9.9879 14.2919 9.83061C14.2678 9.62761 14.2319 9.42709 14.1816 9.229C14.1435 9.0408 14.0844 8.85864 14.0197 8.67821C13.8397 8.1764 13.5895 7.712 13.2708 7.28441C13.2064 7.19797 13.139 7.11372 13.0729 7.02849C13.0972 7.02634 13.1094 7.04474 13.1238 7.05884C13.3125 7.24306 13.4976 7.43103 13.6907 7.61038C13.8237 7.73392 13.946 7.86831 14.0811 7.98899C14.1999 8.09501 14.3049 8.21494 14.4238 8.32016C14.5627 8.44308 14.6847 8.58305 14.8226 8.70631C14.9525 8.82244 15.0675 8.95347 15.1971 9.06909C15.3327 9.19004 15.4527 9.32678 15.5879 9.44741C15.7165 9.56214 15.8302 9.69181 15.9584 9.8063C16.0995 9.93227 16.2246 10.0744 16.3652 10.2003C16.495 10.3165 16.6128 10.4443 16.7389 10.5641C16.8959 10.7133 17.0504 10.8653 17.2106 11.0111C17.4175 11.1993 17.6269 11.3848 17.8326 11.5744C17.8844 11.6221 17.9341 11.6726 17.9894 11.7165C17.9894 11.8145 17.9934 11.9122 17.9581 12.0073C17.939 12.059 17.9121 12.1055 17.8758 12.1433C17.7565 12.2675 17.6482 12.4049 17.4877 12.4827C17.4165 12.5171 17.3416 12.5309 17.2634 12.5359C16.9912 12.5533 16.7187 12.5617 16.4463 12.5722C16.306 12.5776 16.1658 12.575 16.0256 12.5805C15.8745 12.5865 15.7236 12.5991 15.5747 12.6259C15.496 12.6401 15.4453 12.686 15.4171 12.7664C15.2001 13.3852 14.8977 13.9596 14.5111 14.4902C14.3976 14.6459 14.2785 14.7969 14.1527 14.9426C14.1172 14.9838 14.1217 15.0286 14.1266 15.0748C14.1385 15.1868 14.1822 15.2887 14.2411 15.3822C14.3552 15.5636 14.4508 15.7546 14.5477 15.945C14.6607 16.1672 14.7708 16.3909 14.8881 16.6108C14.9723 16.7688 14.9865 16.9277 14.9341 17.0981C14.9081 17.1827 14.8896 17.2701 14.8602 17.3537C14.8153 17.4814 14.7241 17.5706 14.6084 17.6372C14.1663 17.8914 13.7244 18.1457 13.2825 18.4002C12.9796 18.5748 12.6758 18.748 12.3697 18.9171C12.2199 18.9999 12.0679 19.0179 11.9043 18.967C11.8054 18.9362 11.7046 18.9118 11.608 18.8739C11.4542 18.8134 11.3755 18.6775 11.2922 18.55C11.1387 18.3152 10.9913 18.0764 10.8426 17.8385C10.7625 17.7105 10.6924 17.5763 10.6034 17.4538C10.5574 17.3905 10.5129 17.326 10.4643 17.2647C10.4023 17.1866 10.3259 17.1599 10.2225 17.1807C9.74552 17.2768 9.26271 17.308 8.77704 17.2893C8.57188 17.2814 8.36577 17.2765 8.16333 17.2348Z" fill="#80868B"/>
    <path d="M7.33511 11.6001C5.5037 9.18284 3.62346 11.0197 4.11428 12.7092C4.95733 14.5576 6.8388 15.8433 9.00046 15.8433C10.9173 15.8433 12.5748 14.8463 13.5161 13.3949C12.0998 14.7172 9.52913 14.4961 7.33511 11.6001Z" fill="#255FDB"/>
    <path d="M8.97111 9.9357C6.45232 6.12434 3.62891 8.15548 3.62891 10.4851C3.62891 11.2841 3.8035 12.0381 4.11667 12.719C3.78213 11.141 5.5995 9.92413 7.29172 12.1891C9.74885 15.4779 12.1602 14.8994 13.5093 13.403C13.8738 12.8609 14.2291 12.0296 14.3286 11.2031L14.3268 11.2135C13.7492 13.0053 11.1926 13.297 8.97111 9.9357Z" fill="#4285F4"/>
    <path d="M10.6975 8.23015C8.82704 5.15146 6.45537 5.42857 4.85167 7.07846C4.0892 8.00359 3.62891 9.18938 3.62891 10.4836C3.79678 8.22771 6.52863 6.66188 9.00103 10.4836C11.2018 13.8851 13.9367 12.9989 14.3261 11.2217L14.3286 11.2047C14.3677 10.9605 14.3719 10.7272 14.3719 10.4763C14.3719 10.3953 14.375 10.3149 14.3713 10.2351C13.4178 10.9099 12.1663 10.6474 10.6975 8.23015Z" fill="#91BFFF"/>
    <path d="M10.7121 8.77836C12.425 11.5257 13.9018 10.8229 14.373 10.2352C14.3547 9.81616 14.2863 9.41054 14.1765 9.02259C13.378 9.03903 13.1918 8.90626 12.4092 7.71255C11.2053 5.8763 9.69257 4.63812 7.05169 5.48895C6.18727 5.82575 5.43151 6.37875 4.85156 7.08097C6.66771 5.41343 8.89591 5.86594 10.7121 8.77836Z" fill="#C4E1FF"/>
    <path d="M12.2859 7.94813C13.0685 9.14185 13.5453 9.20519 14.1735 9.02248C13.5343 6.76964 11.4624 5.12402 8.99793 5.12402C8.30993 5.12402 7.65124 5.25497 7.04688 5.48945C9.40755 4.74642 11.0821 6.11188 12.2859 7.94813Z" fill="#F5F5F5"/>
    <path d="M9.00103 15.7108C11.9453 15.7108 14.3353 13.3763 14.3713 10.4834C14.3713 10.5053 14.3731 10.5272 14.3731 10.5498C14.3731 13.4732 11.9679 15.8429 9.00103 15.8429C6.03598 15.8429 3.66187 13.4537 3.62891 10.5498C3.62891 10.5279 3.62891 10.5059 3.62891 10.4834C3.66492 13.3763 6.05674 15.7108 9.00103 15.7108Z" fill="#212121" fill-opacity="0.1"/>
    <path d="M9.00103 5.25618C11.9453 5.25618 14.3353 7.59063 14.3713 10.4836C14.3713 10.4616 14.3744 10.4397 14.3744 10.4172C14.3744 7.49379 11.9679 5.12402 9.00103 5.12402C6.03415 5.12402 3.62891 7.49379 3.62891 10.4172C3.62891 10.4397 3.63074 10.4616 3.63074 10.4836C3.66676 7.59063 6.05674 5.25618 9.00103 5.25618Z" fill="white" fill-opacity="0.2"/>
    <path d="M9.00103 15.8431C11.968 15.8431 14.3731 13.4435 14.3731 10.4836C14.3731 7.52357 11.968 5.12402 9.00103 5.12402C6.03409 5.12402 3.62891 7.52357 3.62891 10.4836C3.62891 13.4435 6.03409 15.8431 9.00103 15.8431Z" fill="url(#paint0_radial_22_2023)" fill-opacity="0.1"/>
  </g>
  <defs>
    <radialGradient id="paint0_radial_22_2023" cx="0" cy="0" r="1" gradientUnits="userSpaceOnUse" gradientTransform="translate(5.25171 6.74303) scale(10.6732 10.6482)">
      <stop stop-color="white"/>
      <stop offset="1" stop-color="white" stop-opacity="0"/>
    </radialGradient>
    <clipPath id="clip0_22_2023">
    <rect width="283" height="26" fill="white"/>
    </clipPath>
  </defs>
</svg>

